<?xml version="1.0" encoding="UTF-8" standalone="no"?>
<!-- Uploaded to: SVG Repo, www.svgrepo.com, Generator: SVG Repo Mixer Tools -->

<svg
   height="800px"
   width="800px"
   version="1.1"
   id="Capa_1"
   viewBox="0 0 56 56"
   xml:space="preserve"
   sodipodi:docname="file.svg"
   inkscape:version="1.4 (1:1.4+202410161351+e7c3feb100)"
   xmlns:inkscape="http://www.inkscape.org/namespaces/inkscape"
   xmlns:sodipodi="http://sodipodi.sourceforge.net/DTD/sodipodi-0.dtd"
   xmlns="http://www.w3.org/2000/svg"
   xmlns:svg="http://www.w3.org/2000/svg"><defs
   id="defs17">
	
	
	
	
	
	
	
	
	
	
	
	
	
	
	
	
</defs><sodipodi:namedview
   id="namedview17"
   pagecolor="#ffffff"
   bordercolor="#000000"
   borderopacity="0.25"
   inkscape:showpageshadow="2"
   inkscape:pageopacity="0.0"
   inkscape:pagecheckerboard="0"
   inkscape:deskcolor="#d1d1d1"
   inkscape:zoom="0.77870134"
   inkscape:cx="515.60204"
   inkscape:cy="559.26448"
   inkscape:window-width="1920"
   inkscape:window-height="1131"
   inkscape:window-x="0"
   inkscape:window-y="0"
   inkscape:window-maximized="1"
   inkscape:current-layer="Capa_1" />
<path
   style="fill:#e9e9e0"
   d="M 36.985,0 H 7.963 C 7.155,0 6.5,0.655 6.5,1.926 V 55 c 0,0.345 0.655,1 1.463,1 H 48.037 C 48.845,56 49.5,55.345 49.5,55 V 12.978 c 0,-0.696 -0.093,-0.92 -0.257,-1.085 L 37.607,0.257 C 37.442,0.093 37.218,0 36.985,0 Z"
   id="path1" /><polygon
   style="fill:#d9d7ca"
   points="49.349,12 37.5,0.151 37.5,12 "
   id="polygon1" /><path
   style="fill:#c8bdb8"
   d="m 18.5,13 h -6 c -0.553,0 -1,-0.448 -1,-1 0,-0.552 0.447,-1 1,-1 h 6 c 0.553,0 1,0.448 1,1 0,0.552 -0.447,1 -1,1 z"
   id="path6" /><path
   style="fill:#c8bdb8"
   d="m 21.5,18 h -9 c -0.553,0 -1,-0.448 -1,-1 0,-0.552 0.447,-1 1,-1 h 9 c 0.553,0 1,0.448 1,1 0,0.552 -0.447,1 -1,1 z"
   id="path7" /><path
   style="fill:#c8bdb8"
   d="M 25.5,18 C 25.24,18 24.979,17.89 24.79,17.71 24.609,17.52 24.5,17.27 24.5,17 c 0,-0.27 0.109,-0.52 0.3,-0.71 0.36,-0.37 1.04,-0.37 1.41,0 0.18,0.19 0.29,0.45 0.29,0.71 0,0.26 -0.11,0.52 -0.29,0.71 C 26.02,17.89 25.76,18 25.5,18 Z"
   id="path8" /><path
   style="fill:#c8bdb8"
   d="m 37.5,18 h -8 c -0.553,0 -1,-0.448 -1,-1 0,-0.552 0.447,-1 1,-1 h 8 c 0.553,0 1,0.448 1,1 0,0.552 -0.447,1 -1,1 z"
   id="path9" /><path
   style="fill:#c8bdb8"
   d="M 12.5,33 C 12.24,33 11.979,32.89 11.79,32.71 11.609,32.52 11.5,32.26 11.5,32 c 0,-0.26 0.109,-0.52 0.29,-0.71 0.37,-0.37 1.05,-0.37 1.42,0.01 0.18,0.18 0.29,0.44 0.29,0.7 0,0.26 -0.11,0.52 -0.29,0.71 C 13.02,32.89 12.76,33 12.5,33 Z"
   id="path10" /><path
   style="fill:#c8bdb8"
   d="m 24.5,33 h -8 c -0.553,0 -1,-0.448 -1,-1 0,-0.552 0.447,-1 1,-1 h 8 c 0.553,0 1,0.448 1,1 0,0.552 -0.447,1 -1,1 z"
   id="path11" /><path
   style="fill:#c8bdb8"
   d="m 43.5,18 h -2 c -0.553,0 -1,-0.448 -1,-1 0,-0.552 0.447,-1 1,-1 h 2 c 0.553,0 1,0.448 1,1 0,0.552 -0.447,1 -1,1 z"
   id="path12" /><path
   style="fill:#c8bdb8"
   d="m 34.5,23 h -22 c -0.553,0 -1,-0.448 -1,-1 0,-0.552 0.447,-1 1,-1 h 22 c 0.553,0 1,0.448 1,1 0,0.552 -0.447,1 -1,1 z"
   id="path13" /><path
   style="fill:#c8bdb8"
   d="m 43.5,23 h -6 c -0.553,0 -1,-0.448 -1,-1 0,-0.552 0.447,-1 1,-1 h 6 c 0.553,0 1,0.448 1,1 0,0.552 -0.447,1 -1,1 z"
   id="path14" /><path
   style="fill:#c8bdb8"
   d="m 16.5,28 h -4 c -0.553,0 -1,-0.448 -1,-1 0,-0.552 0.447,-1 1,-1 h 4 c 0.553,0 1,0.448 1,1 0,0.552 -0.447,1 -1,1 z"
   id="path15" /><path
   style="fill:#c8bdb8"
   d="m 30.5,28 h -10 c -0.553,0 -1,-0.448 -1,-1 0,-0.552 0.447,-1 1,-1 h 10 c 0.553,0 1,0.448 1,1 0,0.552 -0.447,1 -1,1 z"
   id="path16" /><path
   style="fill:#c8bdb8"
   d="m 43.5,28 h -9 c -0.553,0 -1,-0.448 -1,-1 0,-0.552 0.447,-1 1,-1 h 9 c 0.553,0 1,0.448 1,1 0,0.552 -0.447,1 -1,1 z"
   id="path17" />
</svg>
