<?xml version="1.0" encoding="UTF-8" standalone="no"?>
<!-- Uploaded to: SVG Repo, www.svgrepo.com, Generator: SVG Repo Mixer Tools -->

<svg
   height="800px"
   width="800px"
   version="1.1"
   id="Capa_1"
   viewBox="0 0 56 56"
   xml:space="preserve"
   sodipodi:docname="ico.svg"
   inkscape:version="1.4 (1:1.4+202410161351+e7c3feb100)"
   xmlns:inkscape="http://www.inkscape.org/namespaces/inkscape"
   xmlns:sodipodi="http://sodipodi.sourceforge.net/DTD/sodipodi-0.dtd"
   xmlns="http://www.w3.org/2000/svg"
   xmlns:svg="http://www.w3.org/2000/svg"><defs
   id="defs18">
	
	
	
	
	
	
	
	
	
	
	
	
	
	
	
	

		
		
		
	
	
	
	
	
	

		
		
		
	</defs><sodipodi:namedview
   id="namedview18"
   pagecolor="#ffffff"
   bordercolor="#000000"
   borderopacity="0.25"
   inkscape:showpageshadow="2"
   inkscape:pageopacity="0.0"
   inkscape:pagecheckerboard="0"
   inkscape:deskcolor="#d1d1d1"
   showguides="true"
   inkscape:zoom="0.77870134"
   inkscape:cx="416.71946"
   inkscape:cy="636.31584"
   inkscape:window-width="1920"
   inkscape:window-height="1131"
   inkscape:window-x="0"
   inkscape:window-y="0"
   inkscape:window-maximized="1"
   inkscape:current-layer="Capa_1" />
<path
   style="fill:#e9e9e0"
   d="M 36.985,0 H 7.963 C 7.155,0 6.5,0.655 6.5,1.926 V 55 c 0,0.345 0.655,1 1.463,1 H 48.037 C 48.845,56 49.5,55.345 49.5,55 V 12.978 c 0,-0.696 -0.093,-0.92 -0.257,-1.085 L 37.607,0.257 C 37.442,0.093 37.218,0 36.985,0 Z"
   id="path1" /><polygon
   style="fill:#d9d7ca"
   points="49.349,12 37.5,0.151 37.5,12 "
   id="polygon1" /><path
   style="fill:#e6d600;fill-opacity:1"
   d="m 18.5,13 h -6 c -0.552,0 -1,-0.448 -1,-1 0,-0.552 0.448,-1 1,-1 h 6 c 0.552,0 1,0.448 1,1 0,0.552 -0.448,1 -1,1 z"
   id="path2" /><path
   style="fill:#e6d600;fill-opacity:1"
   d="m 21.5,18 h -9 c -0.552,0 -1,-0.448 -1,-1 0,-0.552 0.448,-1 1,-1 h 9 c 0.552,0 1,0.448 1,1 0,0.552 -0.448,1 -1,1 z"
   id="path3" /><path
   style="fill:#e6d600;fill-opacity:1"
   d="M 25.5,18 C 25.24,18 24.98,17.89 24.79,17.71 24.61,17.52 24.5,17.26 24.5,17 c 0,-0.26 0.11,-0.52 0.29,-0.71 0.37,-0.37 1.05,-0.37 1.42,0 0.18,0.19 0.29,0.45 0.29,0.71 0,0.26 -0.11,0.52 -0.29,0.71 C 26.02,17.89 25.76,18 25.5,18 Z"
   id="path4" /><path
   style="fill:#e6d600;fill-opacity:1"
   d="m 37.5,18 h -8 c -0.552,0 -1,-0.448 -1,-1 0,-0.552 0.448,-1 1,-1 h 8 c 0.552,0 1,0.448 1,1 0,0.552 -0.448,1 -1,1 z"
   id="path5" /><path
   style="fill:#e6d600;fill-opacity:1"
   d="M 12.5,33 C 12.24,33 11.98,32.89 11.79,32.71 11.61,32.52 11.5,32.26 11.5,32 c 0,-0.26 0.11,-0.52 0.29,-0.71 0.37,-0.37 1.05,-0.37 1.42,0 0.18,0.19 0.29,0.44 0.29,0.71 0,0.26 -0.11,0.52 -0.29,0.71 C 13.02,32.89 12.76,33 12.5,33 Z"
   id="path6" /><path
   style="fill:#e6d600;fill-opacity:1"
   d="m 24.5,33 h -8 c -0.552,0 -1,-0.448 -1,-1 0,-0.552 0.448,-1 1,-1 h 8 c 0.552,0 1,0.448 1,1 0,0.552 -0.448,1 -1,1 z"
   id="path7" /><path
   style="fill:#e6d600;fill-opacity:1"
   d="m 43.5,18 h -2 c -0.552,0 -1,-0.448 -1,-1 0,-0.552 0.448,-1 1,-1 h 2 c 0.552,0 1,0.448 1,1 0,0.552 -0.448,1 -1,1 z"
   id="path8" /><path
   style="fill:#e6d600;fill-opacity:1"
   d="m 34.5,23 h -22 c -0.552,0 -1,-0.448 -1,-1 0,-0.552 0.448,-1 1,-1 h 22 c 0.552,0 1,0.448 1,1 0,0.552 -0.448,1 -1,1 z"
   id="path9" /><path
   style="fill:#e6d600;fill-opacity:1"
   d="m 43.5,23 h -6 c -0.552,0 -1,-0.448 -1,-1 0,-0.552 0.448,-1 1,-1 h 6 c 0.552,0 1,0.448 1,1 0,0.552 -0.448,1 -1,1 z"
   id="path10" /><path
   style="fill:#e6d600;fill-opacity:1"
   d="m 16.5,28 h -4 c -0.552,0 -1,-0.448 -1,-1 0,-0.552 0.448,-1 1,-1 h 4 c 0.552,0 1,0.448 1,1 0,0.552 -0.448,1 -1,1 z"
   id="path11" /><path
   style="fill:#e6d600;fill-opacity:1"
   d="m 30.5,28 h -10 c -0.552,0 -1,-0.448 -1,-1 0,-0.552 0.448,-1 1,-1 h 10 c 0.552,0 1,0.448 1,1 0,0.552 -0.448,1 -1,1 z"
   id="path12" /><path
   style="fill:#e6d600;fill-opacity:1"
   d="m 43.5,28 h -9 c -0.552,0 -1,-0.448 -1,-1 0,-0.552 0.448,-1 1,-1 h 9 c 0.552,0 1,0.448 1,1 0,0.552 -0.448,1 -1,1 z"
   id="path13" /><path
   style="fill:#e6d600;fill-opacity:1"
   d="M 48.037,56 H 7.963 C 7.155,56 6.5,55.345 6.5,54.537 V 39 h 43 V 54.537 C 49.5,55.345 48.845,56 48.037,56 Z"
   id="path14" />
<g
   id="g22"
   transform="translate(-3.11875,-16.940674)"><path
     style="fill:#ffffff"
     d="m 43.3045,64.440674 c 0,0.848 -0.107,1.595 -0.321,2.242 -0.214,0.647 -0.511,1.185 -0.889,1.613 -0.378,0.429 -0.82,0.752 -1.326,0.971 -0.506,0.219 -1.06,0.328 -1.661,0.328 -0.601,0 -1.155,-0.109 -1.661,-0.328 -0.506,-0.219 -0.948,-0.542 -1.326,-0.971 -0.378,-0.429 -0.675,-0.966 -0.889,-1.613 -0.214,-0.647 -0.321,-1.395 -0.321,-2.242 0,-0.847 0.107,-1.593 0.321,-2.235 0.214,-0.643 0.51,-1.178 0.889,-1.606 0.378,-0.429 0.82,-0.754 1.326,-0.978 0.506,-0.224 1.06,-0.335 1.661,-0.335 0.601,0 1.155,0.111 1.661,0.335 0.506,0.224 0.948,0.549 1.326,0.978 0.378,0.429 0.674,0.964 0.889,1.606 0.213,0.642 0.321,1.387 0.321,2.235 z m -4.239,3.815 c 0.337,0 0.658,-0.066 0.964,-0.198 0.305,-0.132 0.579,-0.349 0.82,-0.649 0.241,-0.301 0.431,-0.695 0.567,-1.183 0.136,-0.488 0.209,-1.082 0.219,-1.784 -0.009,-0.684 -0.08,-1.265 -0.212,-1.743 -0.132,-0.479 -0.314,-0.873 -0.547,-1.183 -0.233,-0.31 -0.497,-0.533 -0.793,-0.67 -0.296,-0.137 -0.608,-0.205 -0.937,-0.205 -0.337,0 -0.659,0.063 -0.964,0.191 -0.306,0.128 -0.579,0.344 -0.82,0.649 -0.242,0.306 -0.431,0.699 -0.567,1.183 -0.136,0.484 -0.21,1.075 -0.219,1.777 0.009,0.684 0.08,1.267 0.212,1.75 0.132,0.483 0.314,0.877 0.547,1.183 0.233,0.306 0.497,0.528 0.793,0.67 0.297,0.141 0.609,0.212 0.937,0.212 z"
     id="path19" /><path
     style="fill:#ffffff"
     d="m 31.25525,68.501674 c -0.374,0.364 -0.798,0.638 -1.271,0.82 -0.474,0.183 -0.984,0.273 -1.531,0.273 -0.602,0 -1.155,-0.109 -1.661,-0.328 -0.506,-0.219 -0.948,-0.542 -1.326,-0.971 -0.378,-0.429 -0.675,-0.966 -0.889,-1.613 -0.214,-0.647 -0.321,-1.395 -0.321,-2.242 0,-0.847 0.107,-1.593 0.321,-2.235 0.214,-0.643 0.51,-1.178 0.889,-1.606 0.378,-0.429 0.822,-0.754 1.333,-0.978 0.51,-0.224 1.062,-0.335 1.654,-0.335 0.547,0 1.057,0.091 1.531,0.273 0.474,0.183 0.897,0.456 1.271,0.82 l -1.135,1.012 c -0.228,-0.265 -0.481,-0.456 -0.759,-0.574 -0.278,-0.118 -0.567,-0.178 -0.868,-0.178 -0.337,0 -0.659,0.063 -0.964,0.191 -0.306,0.128 -0.579,0.344 -0.82,0.649 -0.242,0.306 -0.431,0.699 -0.567,1.183 -0.136,0.484 -0.21,1.075 -0.219,1.777 0.009,0.684 0.08,1.267 0.212,1.75 0.132,0.483 0.314,0.877 0.547,1.183 0.233,0.306 0.497,0.528 0.793,0.67 0.296,0.142 0.608,0.212 0.937,0.212 0.329,0 0.636,-0.06 0.923,-0.178 0.287,-0.118 0.549,-0.31 0.786,-0.574 z"
     id="path20" /><path
     style="fill:#ffffff;fill-opacity:1"
     d="m 20.601,69.478674 h -1.668 v -10.076 h 1.668 z"
     id="path4-5" /></g></svg>
